HIERARCHY
ROOT Hips
{
	OFFSET -3.958830 18.904000 13.208200
	CHANNELS 6 Xposition Yposition Zposition Zrotation Yrotation Xrotation 
	JOINT LHipJoint
	{
		OFFSET 0.000000 0.000000 0.000000
		CHANNELS 3 Zrotation Yrotation Xrotation
		JOINT LeftUpLeg
		{
			OFFSET 1.800000 -1.400000 0.085000
			CHANNELS 3 Zrotation Yrotation Xrotation
			JOINT LeftLeg
			{
				OFFSET 2.215000 -6.000000 0.000000
				CHANNELS 3 Zrotation Yrotation Xrotation
				JOINT LeftFoot
				{
					OFFSET 2.500000 -6.900000 0.000000
					CHANNELS 3 Zrotation Yrotation Xrotation
					JOINT LeftToeBase
					{
						OFFSET 0.200000 -0.500000 1.950000
						CHANNELS 3 Zrotation Yrotation Xrotation
						End Site
						{
							OFFSET 0.000000 0.000000 0.000000
						}
					}
				}
			}
		}
	}
	JOINT RHipJoint
	{
		OFFSET 0.000000 0.000000 0.000000
		CHANNELS 3 Zrotation Yrotation Xrotation
		JOINT RightUpLeg
		{
			OFFSET -1.800000 -1.400000 0.085000
			CHANNELS 3 Zrotation Yrotation Xrotation
			JOINT RightLeg
			{
				OFFSET -2.215000 -6.000000 0.000000
				CHANNELS 3 Zrotation Yrotation Xrotation
				JOINT RightFoot
				{
					OFFSET -2.500000 -6.900000 0.000000
					CHANNELS 3 Zrotation Yrotation Xrotation
					JOINT RightToeBase
					{
						OFFSET -0.200000 -0.500000 1.950000
						CHANNELS 3 Zrotation Yrotation Xrotation
						End Site
						{
							OFFSET 0.000000 0.000000 0.000000
						}
					}
				}
			}
		}
	}
	JOINT LowerBack
	{
		OFFSET 0.000000 0.000000 0.000000
		CHANNELS 3 Zrotation Yrotation Xrotation
		JOINT Spine
		{
			OFFSET -0.087000 1.940000 -0.288900
			CHANNELS 3 Zrotation Yrotation Xrotation
			JOINT Spine1
			{
				OFFSET 0.000000 1.950000 0.060000
				CHANNELS 3 Zrotation Yrotation Xrotation
				JOINT Neck
				{
					OFFSET 0.000000 0.000000 0.000000
					CHANNELS 3 Zrotation Yrotation Xrotation
					JOINT Neck1
					{
						OFFSET 0.000000 1.600000 0.340000
						CHANNELS 3 Zrotation Yrotation Xrotation
						JOINT Head
						{
							OFFSET 0.000000 1.667000 -0.240000
							CHANNELS 3 Zrotation Yrotation Xrotation
							End Site
							{
								OFFSET 0.000000 0.000000 0.000000
							}
						}
					}
				}
				JOINT LeftShoulder
				{
					OFFSET 0.000000 0.000000 0.000000
					CHANNELS 3 Zrotation Yrotation Xrotation
					JOINT LeftArm
					{
						OFFSET 2.700000 1.550000 -0.730000
						CHANNELS 3 Zrotation Yrotation Xrotation
						JOINT LeftForeArm
						{
							OFFSET 5.450000 0.000000 0.000000
							CHANNELS 3 Zrotation Yrotation Xrotation
							JOINT LeftHand
							{
								OFFSET 3.450000 0.000000 0.000000
								CHANNELS 3 Zrotation Yrotation Xrotation
								JOINT LeftHandIndex1
								{
									OFFSET 0.750000 0.000000 0.000000
									CHANNELS 3 Zrotation Yrotation Xrotation
									End Site
									{
										OFFSET 0.000000 0.000000 0.000000
									}
								}
							}
						}
					}
				}
				JOINT RightShoulder
				{
					OFFSET 0.000000 0.000000 0.000000
					CHANNELS 3 Zrotation Yrotation Xrotation
					JOINT RightArm
					{
						OFFSET -2.700000 1.550000 -0.730000
						CHANNELS 3 Zrotation Yrotation Xrotation
						JOINT RightForeArm
						{
							OFFSET -5.450000 0.000000 0.000000
							CHANNELS 3 Zrotation Yrotation Xrotation
							JOINT RightHand
							{
								OFFSET -3.450000 0.000000 0.000000
								CHANNELS 3 Zrotation Yrotation Xrotation
								JOINT RightHandIndex1
								{
									OFFSET -0.750000 0.000000 0.000000
									CHANNELS 3 Zrotation Yrotation Xrotation
									End Site
									{
										OFFSET 0.000000 0.000000 0.000000
									}
								}
							}
						}
					}
				}
			}
		}
	}
}
MOTION
Frames: 13
Frame Time: 0.016667
0.772910 15.336710 -2.823080 10.236849 -83.184343 -14.943507 -15.896307 12.243575 3.442267 19.876766 -4.512990 -31.514514 5.428855 11.314826 60.616525 0.965622 10.297889 0.631782 0.524840 0.445670 0.617340 17.902636 -7.710525 5.659162 -51.235590 2.594317 -31.077165 46.408617 -22.556246 27.572741 -1.574095 -9.147494 0.885492 0.153340 -0.587920 0.005530 -5.294624 -2.536189 -9.717904 25.241001 -14.089784 33.606416 -22.684030 0.254872 5.716944 6.632724 -0.097710 -30.580354 -13.497865 6.234312 75.693290 -6.813860 -0.400580 -4.077050 -47.368612 -38.097378 17.693906 -11.182736 -19.679020 -3.075004 5.095900 -0.544772 -0.760625 -3.634956 2.464644 0.473300 -0.429520 0.484340 -0.065730 31.857143 43.149042 12.136569 35.315655 30.337992 2.247988 12.025838 13.197388 1.552526 2.739978 -0.946133 0.155040 -0.017500 -0.248290 -0.185430 
0.753150 15.388180 -2.904550 3.170046 -81.701824 -7.659311 -15.824602 12.160128 3.425389 21.006302 -4.255049 -31.387962 5.010897 11.006308 58.148383 0.856515 9.898528 0.749160 0.508680 0.428990 0.612320 17.949631 -7.924886 5.627458 -49.285002 2.520347 -32.078564 45.030308 -23.469600 29.762605 -1.587391 -9.295179 0.848578 0.145470 -0.575560 0.008390 -5.270338 -2.561397 -9.720776 23.641967 -13.802491 33.508468 -20.999681 -0.903965 5.465469 6.105513 0.011147 -29.533739 -12.212540 5.431552 74.224559 -6.857860 0.209890 -4.266960 -46.839548 -38.226342 17.791581 -12.375158 -20.971414 -3.059189 4.714593 -1.445518 -0.743927 -3.619971 2.509105 0.463730 -0.411940 0.472520 -0.069320 32.193543 42.814050 11.445482 36.785567 29.684208 1.028326 16.455043 17.486947 2.227664 2.656188 -1.031688 0.147560 -0.021610 -0.243460 -0.190450 
0.739720 15.459820 -2.987500 -1.047686 -80.648034 -2.821983 -15.750718 12.068792 3.461798 22.572171 -3.810355 -31.188360 3.322146 11.358113 54.701036 0.728728 9.483477 0.866261 0.487450 0.410590 0.604760 18.003540 -8.098333 5.554374 -46.897208 2.513914 -33.162922 42.920683 -23.668738 31.481719 -1.558695 -9.330549 0.839031 0.141060 -0.553860 0.014620 -5.255290 -2.493075 -9.735352 21.558905 -13.350611 32.872386 -19.370457 -2.166297 5.955659 5.637287 0.418205 -28.509416 -10.103323 4.814515 72.898156 -6.603740 1.446490 -4.182900 -44.650583 -38.621555 17.707199 -13.708853 -22.287294 -2.437426 4.383351 -1.618195 -0.697115 -3.653636 2.531327 0.448930 -0.381180 0.455280 -0.075800 30.681699 42.687268 10.068042 37.822328 30.403814 0.696867 22.849224 20.962855 3.352535 2.618196 -1.106128 0.135140 -0.027450 -0.233830 -0.198680 
0.722940 15.547470 -3.088770 -3.179911 -79.699945 0.438051 -15.706054 11.896002 3.621612 24.704786 -3.179641 -31.336517 0.328266 12.412541 50.706352 0.621501 9.195506 0.952921 0.461450 0.385690 0.584400 18.048849 -8.188906 5.438049 -44.407421 2.603143 -34.276252 40.635208 -23.314319 32.590227 -1.493575 -9.265858 0.863990 0.138840 -0.507390 0.019900 -5.204022 -2.410303 -9.806088 18.996711 -12.353112 31.656277 -17.270359 -3.280976 6.607735 5.133688 0.544493 -26.852113 -8.631223 4.366907 70.866337 -6.044840 2.137440 -3.977450 -41.533760 -38.772856 16.764021 -15.696255 -23.795116 -1.136793 3.281819 -1.588043 -0.595218 -3.694416 2.542285 0.421610 -0.338930 0.421760 -0.073350 28.672726 42.220514 8.874610 38.774009 31.167790 0.301277 29.596011 25.141256 4.994000 2.589001 -1.211083 0.116560 -0.021570 -0.220580 -0.197320 
0.723420 15.661720 -3.192270 -4.976645 -78.571922 3.593478 -15.696498 11.661397 3.957548 27.308064 -2.671560 -31.976379 -3.710261 13.773277 46.487001 0.558157 9.069372 0.992950 0.435480 0.359700 0.561220 18.078757 -8.183503 5.229491 -41.652690 2.731841 -35.072234 38.055642 -22.392418 33.082028 -1.395204 -9.057086 0.933911 0.133000 -0.462140 0.022840 -5.000505 -2.467657 -9.944334 15.982977 -11.402119 31.024153 -14.874210 -4.260810 6.688213 4.578612 0.852312 -25.247502 -7.021978 3.711983 68.636576 -5.241000 2.460670 -3.748580 -38.213505 -38.866992 15.649517 -17.625771 -25.460726 0.155852 1.553439 -2.344069 -0.442046 -3.700625 2.561007 0.394700 -0.302760 0.390060 -0.066470 26.688356 41.458483 8.106297 38.774021 31.108566 -0.692890 37.356265 31.311986 7.862673 2.561381 -1.341690 0.100420 -0.015910 -0.211650 -0.191640 
0.737540 15.796250 -3.303960 -7.048058 -77.396075 7.168895 -15.735386 11.415503 4.384691 30.001127 -2.131236 -32.886144 -7.937826 14.854761 41.884227 0.513664 8.995520 1.024362 0.415570 0.345130 0.521350 18.077170 -8.111965 4.952865 -38.509949 3.060716 -35.821983 35.241334 -21.035976 33.155310 -1.265230 -8.714290 1.050623 0.137740 -0.399710 0.022390 -4.711228 -2.653766 -10.081788 12.809113 -10.582189 30.371683 -12.073703 -5.285992 6.913264 3.953778 0.827545 -23.461505 -6.313617 3.676041 65.938849 -3.623030 2.355220 -3.595340 -34.644033 -38.683592 14.502793 -19.994736 -27.523373 1.608823 0.217532 -3.032566 -0.297335 -3.708265 2.600819 0.360090 -0.264600 0.347810 -0.048180 24.822446 40.397019 7.436618 37.998512 31.187518 -1.234289 45.883368 38.187390 12.285291 2.553232 -1.469451 0.083820 -0.000990 -0.201640 -0.174130 
0.752250 15.951600 -3.411190 -9.007635 -76.316910 10.408395 -15.831532 11.252104 4.838634 32.405448 -1.502758 -33.721116 -11.756613 15.569329 37.629213 0.499103 8.979591 1.035311 0.423320 0.370640 0.484790 18.015713 -8.035817 4.603877 -35.232405 3.595849 -35.870733 32.279651 -19.480247 33.045164 -1.134610 -8.268334 1.198395 0.162600 -0.347520 0.020490 -4.342720 -2.976314 -10.166970 9.775229 -9.698396 29.782000 -9.007300 -5.954388 7.406113 3.337330 0.419830 -21.824210 -6.789062 4.257425 63.906475 -1.513620 1.785450 -3.991540 -30.956335 -38.310135 13.225154 -22.999289 -30.129114 3.330767 -1.144213 -4.046106 -0.127429 -3.686656 2.656001 0.329030 -0.243300 0.320270 -0.019350 23.064920 39.390365 7.147817 36.256277 31.146703 -1.336254 55.183671 46.083760 18.936691 2.562928 -1.580157 0.080870 0.020870 -0.202460 -0.145900 
0.771350 16.117240 -3.508950 -11.553757 -75.336579 14.048939 -15.988691 11.115115 5.344301 34.703012 -0.855281 -34.475721 -15.713015 16.202250 33.725923 0.516680 9.093105 1.006467 0.435310 0.401590 0.447040 17.894944 -7.961061 4.210978 -31.890937 4.221020 -35.440357 29.243617 -17.720412 32.620075 -0.989365 -7.709614 1.385211 0.194480 -0.291910 0.014110 -3.936861 -3.378437 -10.228830 7.091598 -8.719254 29.160466 -5.766139 -6.147877 8.175414 2.642657 0.203115 -20.656658 -7.029378 4.808843 62.630561 1.186090 1.040550 -4.286630 -27.396103 -38.253393 12.057226 -25.885330 -33.177384 5.429584 -2.861775 -4.693102 0.072747 -3.679648 2.683748 0.302300 -0.225220 0.292140 0.009830 21.541870 38.670228 7.167086 33.653803 30.825071 -1.167603 64.302824 53.350950 26.891065 2.598007 -1.638716 0.074030 0.050120 -0.201360 -0.116740 
0.787990 16.278160 -3.603590 -13.308031 -74.118844 16.772721 -16.188360 11.029117 5.857816 36.710298 -0.317756 -34.986175 -19.876111 16.644390 29.941265 0.557909 9.246003 0.959153 0.450990 0.436680 0.421870 17.727700 -7.881153 3.823139 -29.074345 4.655043 -34.468700 26.540642 -16.072512 31.897328 -0.859902 -7.129374 1.578907 0.221690 -0.259670 0.009790 -3.522324 -3.866008 -10.284868 4.219655 -8.114125 28.522272 -2.657346 -6.573806 9.037897 2.052052 0.127215 -20.389562 -7.218392 5.453747 62.734840 3.143190 0.628750 -4.496940 -24.262159 -38.627179 11.543864 -28.643055 -35.997823 7.778805 -4.697906 -3.753776 0.214034 -3.690797 2.679664 0.286960 -0.217800 0.279810 0.029140 20.063275 38.537359 7.201564 31.033640 30.847752 -0.631181 72.676148 59.187141 35.045497 2.683486 -1.604327 0.075140 0.070890 -0.200370 -0.094900 
0.790450 16.423190 -3.693370 -14.263804 -72.830654 18.495522 -16.419889 11.001043 6.367441 38.521505 0.167196 -35.081824 -24.494321 17.203638 26.635465 0.646476 9.525203 0.873666 0.465600 0.468460 0.409520 17.526692 -7.830543 3.380889 -26.531947 4.780720 -32.622845 23.883223 -14.353668 30.623599 -0.726113 -6.480879 1.798535 0.245760 -0.234710 0.009340 -3.047861 -4.396705 -10.298780 1.114025 -7.478498 27.468769 0.489209 -6.920401 9.953340 1.549397 0.271526 -20.202628 -6.928372 6.447442 64.214576 4.594720 1.119520 -3.998690 -21.585705 -38.758708 11.186522 -31.462380 -38.109964 9.704817 -6.588084 -4.275422 0.423339 -3.660049 2.704305 0.274000 -0.204600 0.273700 0.043810 18.842582 38.245282 7.268777 28.767114 30.861173 0.200950 80.393823 63.806442 43.054595 2.831628 -1.449447 0.075610 0.083830 -0.202310 -0.081920 
0.782640 16.548870 -3.771790 -15.605716 -71.723766 20.351051 -16.668036 10.993160 6.813871 40.270327 0.757586 -34.642176 -29.155096 17.963771 24.127756 0.768469 9.886034 0.757614 0.509540 0.531760 0.432780 17.315140 -7.820564 2.931336 -24.066296 4.774237 -30.571287 21.151576 -12.727185 29.398921 -0.622451 -5.826612 2.016795 0.281630 -0.243880 0.018260 -2.602585 -4.884703 -10.252837 -1.515336 -6.951029 26.221080 3.139986 -7.087700 10.778973 1.301169 0.605030 -19.755671 -6.250441 7.032337 65.957597 5.241650 1.709570 -4.463940 -19.162580 -38.557809 10.678721 -34.797585 -40.167353 11.711710 -8.541451 -4.755588 0.624785 -3.611116 2.746655 0.273430 -0.206980 0.294810 0.054990 17.267582 37.759611 7.255286 26.907138 30.920737 0.873330 91.651303 67.939883 54.062126 3.124145 -0.987708 0.092010 0.088270 -0.220860 -0.077380 
0.756580 16.655760 -3.846160 -16.583425 -70.765876 21.447218 -16.876517 11.098090 7.137262 41.474901 1.338217 -33.664051 -33.202607 18.868192 22.585384 0.885765 10.247660 0.646259 0.540650 0.575460 0.446720 17.124220 -7.902401 2.465204 -21.620400 4.532260 -27.950135 18.120644 -11.007191 27.885236 -0.511826 -5.119425 2.262424 0.313220 -0.244350 0.021250 -2.208412 -5.314732 -10.124815 -3.779318 -6.569564 24.831396 5.221646 -7.138603 11.554870 1.171521 0.513292 -19.371773 -6.758172 8.106110 67.904439 5.676670 2.043740 -4.785930 -17.390979 -38.326065 10.417335 -38.026455 -41.818293 13.543724 -10.124549 -4.833679 0.758712 -3.571749 2.783441 0.279320 -0.207920 0.306470 0.061370 16.113517 37.861092 7.000724 25.249980 30.769967 0.400526 104.206659 69.197389 66.891299 3.296798 -0.346317 0.094930 0.103030 -0.226370 -0.075790 
0.714170 16.731510 -3.895720 -17.545083 -69.902563 22.462865 -17.029450 11.283176 7.321363 41.827187 1.790642 -32.419338 -36.597352 19.974356 21.988649 1.005145 10.565715 0.554735 0.564950 0.608690 0.461860 16.964904 -8.064560 2.042525 -19.320544 4.055267 -25.032271 14.995125 -9.183715 25.623571 -0.400286 -4.358241 2.539051 0.339000 -0.245870 0.025270 -1.884619 -5.653255 -9.941746 -5.405517 -6.421641 23.001353 6.765984 -7.215550 12.198164 1.227864 0.253969 -18.953128 -7.691783 9.234976 69.455345 5.403020 2.528970 -4.829400 -16.207888 -37.947143 10.295531 -41.302058 -42.990592 15.159606 -11.435267 -5.308374 0.919568 -3.531412 2.835771 0.278210 -0.202890 0.313000 0.065340 15.139381 37.980893 6.658227 23.535671 30.656730 0.276367 109.523830 68.993029 73.440579 3.222540 -0.148188 0.097410 0.111720 -0.231530 -0.077070 
